<?xml version="1.0"?>
<svg width="1440" height="1024" xmlns="http://www.w3.org/2000/svg" xmlns:svg="http://www.w3.org/2000/svg">
 <g class="layer">
  <title>Layer 1</title>
  <path clip-rule="evenodd" d="m-359.61,319.83c114.92,-51.54 239.98,30.82 363.16,46.31c123.92,15.6 288.58,-55.1 365.55,45.39c83.88,109.49 -120.44,229.1 117.77,445.82c238.21,216.73 98.89,220.23 117.72,310.05c27.96,133.35 -60.44,189 -109.98,317.05c-48.62,125.68 -181.93,253.59 -310.86,238.46c-151.51,-17.76 -175.65,-299.97 -327.64,-313.34c-163.14,-14.36 -271.94,304.83 -425.04,247.11c-128.55,-48.47 -47.76,-276.81 -28.78,-418.2c13.34,-99.55 118.14,-169.94 121.09,-270.19c3.59,-121.69 -124.76,-220.51 -103.1,-340.54c22.9,-126.9 105.16,-256.37 220.13,-307.92l0,0.01l-0.02,-0.01z" fill="#8400ff" fill-rule="evenodd" id="svg_1" opacity="0.15"/>
  <path clip-rule="evenodd" d="m1427.18,-204.2c141.45,44.91 333.33,-47.74 426.93,72.91c127.42,164.23 244.33,421.37 128.96,643.54c-115.38,222.18 -260.86,338.59 -599,261.58c-338.14,-77.01 -380.31,217.23 -511.22,109.92c-129.59,-106.24 10.53,-377.35 -34.98,-557.66c-50.18,-198.77 -331.18,-310.4 -236.5,-517.85c93.24,-204.33 359.54,-160.68 547.44,-163.51c114.25,-1.73 173.28,117.7 278.38,151.07l-0.01,0z" fill="#0093b0" fill-rule="evenodd" id="svg_2" opacity="0.15"/>
 </g>

</svg>